<?xml version="1.0" encoding="UTF-8" standalone="no"?>
<svg
   xml:space="preserve"
   width="731.244"
   height="731.244"
   viewBox="0 0 193.475 193.475"
   version="1.1"
   id="svg20"
   sodipodi:docname="logo_kreis.svg"
   inkscape:version="1.2.2 (b0a8486541, 2022-12-01)"
   xmlns:inkscape="http://www.inkscape.org/namespaces/inkscape"
   xmlns:sodipodi="http://sodipodi.sourceforge.net/DTD/sodipodi-0.dtd"
   xmlns="http://www.w3.org/2000/svg"
   xmlns:svg="http://www.w3.org/2000/svg"><defs
     id="defs24" /><sodipodi:namedview
     id="namedview22"
     pagecolor="#ffffff"
     bordercolor="#000000"
     borderopacity="0.25"
     inkscape:showpageshadow="2"
     inkscape:pageopacity="0.0"
     inkscape:pagecheckerboard="0"
     inkscape:deskcolor="#d1d1d1"
     showgrid="false"
     inkscape:zoom="1.4044559"
     inkscape:cx="379.15039"
     inkscape:cy="407.63117"
     inkscape:window-width="1246"
     inkscape:window-height="1356"
     inkscape:window-x="1100"
     inkscape:window-y="169"
     inkscape:window-maximized="1"
     inkscape:current-layer="g18" /><g
     transform="translate(-3.987 -1.846)"
     id="g18"><path
       id="path14"
       style="fill:#110432;fill-opacity:1;stroke:#000000;stroke-width:0.000767541"
       d="M 100.67413 10.911081 C 52.243877 10.911859 12.983868 50.17264 12.983868 98.602895 C 12.983866 147.0337 52.244875 186.29471 100.67568 186.29471 C 149.10703 186.29549 188.36905 147.03425 188.36905 98.602895 C 188.36905 50.171542 149.10703 10.910306 100.67568 10.911081 L 100.67413 10.911081 z M 100.67672 31.564086 A 67.039146 67.039146 0 0 1 167.71552 98.602895 A 67.039146 67.039146 0 0 1 100.67672 165.64222 A 67.039146 67.039146 0 0 1 33.63739 98.602895 A 67.039146 67.039146 0 0 1 100.67672 31.564086 z " /><path
       id="circle16-6"
       style="fill:#359198;stroke:#000000;stroke-width:0.000588981;fill-opacity:1"
       d="m 114.8795,179.0733 c 0,-10.71211 16.88771,-23.71898 27.59983,-23.71898 10.71212,0 43.06398,-39.81256 42.27525,-29.12953 -1.85082,25.06857 -35.54471,52.52549 -48.06312,58.72811 -11.20076,5.54976 -21.81196,4.83252 -21.81196,-5.8796 z"
       sodipodi:nodetypes="sssss" /><path
       id="circle16-3"
       style="fill:#359198;stroke:#000000;stroke-width:0.000588981;fill-opacity:1"
       d="m 180.98608,84.413996 c -10.71212,0 -23.71899,-16.8877 -23.71899,-27.59982 0,-10.71211 -39.81256,-43.063979 -29.12952,-42.275249 25.06856,1.850819 52.52548,35.544709 58.7281,48.063109 5.54976,11.20076 4.83252,21.81196 -5.87959,21.81196 z"
       sodipodi:nodetypes="sssss" /><path
       id="circle16"
       style="fill:#359198;stroke:#000000;stroke-width:0.000588981;fill-opacity:1"
       d="m 85.939729,18.291083 c 0,10.712115 -16.887708,23.718983 -27.599823,23.718983 -10.712114,0 -43.063976,39.812563 -42.275246,29.129525 C 17.915476,46.071027 51.609371,18.61411 64.127771,12.411487 75.328531,6.8617284 85.939729,7.5789684 85.939729,18.291083 Z"
       sodipodi:nodetypes="sssss" /><path
       id="circle16-7"
       style="fill:#359198;stroke:#000000;stroke-width:0.000588981;fill-opacity:1"
       d="m 20.243283,112.75298 c 10.712111,0 23.718981,16.88771 23.718981,27.59983 0,10.71211 39.81256,43.06397 29.12953,42.27524 -25.06857,-1.85081 -52.525491,-35.54471 -58.728111,-48.06311 -5.5497597,-11.20076 -4.8325197,-21.81196 5.8796,-21.81196 z"
       sodipodi:nodetypes="sssss" /></g></svg>
